<?xml version="1.0" ?><svg viewBox="0 0 64 64" xmlns="http://www.w3.org/2000/svg"><title/><g data-name="39-sportman" id="_39-sportman"><polygon points="15 59 15 63 9 63 9 62 9 59 15 59" style="fill:#ffdaaa"/><path d="M15,54v1H9V41l11-2.32V49S20,54,15,54Z" style="fill:#ffdaaa"/><path d="M49,54c-5,0-5-5-5-5V38.68L55,41V63H49Z" style="fill:#ffdaaa"/><polygon points="9 59 9 62 5 62 5 51 9 51 9 55 9 59" style="fill:#afb4c8"/><rect height="4" style="fill:#414952" width="6" x="9" y="55"/><path d="M32,46c8,0,8-8,8-8l.03-.15,3.97.83V49s0,5,5,5v9H15V54c5,0,5-5,5-5V38.68l3.97-.83L24,38S24,46,32,46Z" style="fill:#4a98f7"/><path d="M24,41s0,8,8,8,8-8,8-8l.03-.15,3.97.83v-3l-3.97-.83L40,38s0,8-8,8-8-8-8-8l-.03-.15L20,38.68v3l3.97-.83Z" style="fill:#2864f0"/><path d="M44,49v3s0,5,5,5V54C44,54,44,49,44,49Z" style="fill:#2864f0"/><path d="M20,52V49s0,5-5,5v3C20,57,20,52,20,52Z" style="fill:#2864f0"/><path d="M24,16v8a4,4,0,1,1,0-8Z" style="fill:#eb975d"/><path d="M42.83,17.17A4,4,0,0,1,40,24V16A4.025,4.025,0,0,1,42.83,17.17Z" style="fill:#eb975d"/><path d="M40.03,37.85,40,38s0,8-8,8-8-8-8-8l-.03-.15L28,37V32l.03-.06a7.964,7.964,0,0,0,7.94,0L36,32v5Z" style="fill:#ffdaaa"/><polygon points="9 41 9 44 20 41.68 20 38.68 9 41" style="fill:#ffb680"/><polygon points="44 38.68 44 41.68 55 44 55 41 44 38.68" style="fill:#ffb680"/><path d="M32,36a7.954,7.954,0,0,0,3.97-1.06L36,35V32l-.03-.06a7.964,7.964,0,0,1-7.94,0L28,32v3l.03-.06A7.954,7.954,0,0,0,32,36Z" style="fill:#ffb680"/><path d="M36,37v3l3.507.74A10.1,10.1,0,0,0,40,38l.03-.15Z" style="fill:#ffb680"/><path d="M24.493,40.74,28,40V37l-4.03.85L24,38A10.1,10.1,0,0,0,24.493,40.74Z" style="fill:#ffb680"/><path d="M40,24v1a8.014,8.014,0,0,1-2.34,5.66,7.838,7.838,0,0,1-1.69,1.28A8,8,0,0,1,24,25V15H36c4,0,4-4,4-4V24Z" style="fill:#ffdaaa"/><path d="M36,15H24v4H36c4,0,4-4,4-4V11S40,15,36,15Z" style="fill:#ffb680"/><path d="M44,16l-1,1-.17.17A4.025,4.025,0,0,0,40,16V11s0,4-4,4H24v1a4.025,4.025,0,0,0-2.83,1.17L21,17l-1-1V13a12,12,0,0,1,24,0Z" style="fill:#bc6829"/><path d="M32,1a11.986,11.986,0,0,0-2,.18,11.988,11.988,0,0,1,9.925,10.508A4.508,4.508,0,0,0,40,11v5a4.025,4.025,0,0,1,2.83,1.17L43,17l1-1V13A12,12,0,0,0,32,1Z" style="fill:#9e5015"/><path d="M24,15V25a7.992,7.992,0,0,0,11.97,6.94,7.838,7.838,0,0,0,1.69-1.28A8.014,8.014,0,0,0,40,25V11s0,4-4,4H24Z" style="fill:none;stroke:#000;stroke-linejoin:round;stroke-width:2px"/><path d="M43,17l1-1V13a12,12,0,0,0-24,0v3l1,1" style="fill:none;stroke:#000;stroke-linejoin:round;stroke-width:2px"/><path d="M24,24a4,4,0,1,1,0-8" style="fill:none;stroke:#000;stroke-linejoin:round;stroke-width:2px"/><path d="M40,16a4,4,0,0,1,0,8" style="fill:none;stroke:#000;stroke-linejoin:round;stroke-width:2px"/><polyline points="36 32 36 37 40.03 37.85 44 38.68 55 41 55 63 49 63 15 63 9 63 9 62 9 59 9 55 9 51 9 41 20 38.68 23.97 37.85 28 37 28 32" style="fill:none;stroke:#000;stroke-linejoin:round;stroke-width:2px"/><line style="fill:none;stroke:#000;stroke-linejoin:round;stroke-width:2px" x1="24" x2="24" y1="15" y2="10"/><path d="M36,10s0,5-4,5" style="fill:none;stroke:#000;stroke-linejoin:round;stroke-width:2px"/><path d="M32,10s0,5-4,5" style="fill:none;stroke:#000;stroke-linejoin:round;stroke-width:2px"/><path d="M28,10s0,5-4,5" style="fill:none;stroke:#000;stroke-linejoin:round;stroke-width:2px"/><line style="fill:none;stroke:#000;stroke-linejoin:round;stroke-width:2px" x1="40" x2="39" y1="21" y2="21"/><polyline points="15 63 15 59 15 55 15 54 15 50" style="fill:none;stroke:#000;stroke-linejoin:round;stroke-width:2px"/><polyline points="49 63 49 54 49 50" style="fill:none;stroke:#000;stroke-linejoin:round;stroke-width:2px"/><path d="M24,38s0,8,8,8,8-8,8-8" style="fill:none;stroke:#000;stroke-linejoin:round;stroke-width:2px"/><path d="M20,38V49s0,5-5,5" style="fill:none;stroke:#000;stroke-linejoin:round;stroke-width:2px"/><path d="M44,38V49s0,5,5,5" style="fill:none;stroke:#000;stroke-linejoin:round;stroke-width:2px"/><line style="fill:none;stroke:#000;stroke-linejoin:round;stroke-width:2px" x1="32" x2="32" y1="46" y2="50"/><line style="fill:none;stroke:#000;stroke-linejoin:round;stroke-width:2px" x1="15" x2="9" y1="55" y2="55"/><line style="fill:none;stroke:#000;stroke-linejoin:round;stroke-width:2px" x1="15" x2="9" y1="59" y2="59"/><polyline points="9 51 5 51 5 62 9 62" style="fill:none;stroke:#000;stroke-linejoin:round;stroke-width:2px"/></g></svg>